# File created by Blade
# Date/Time:  Tue Jan 27 17:16:27 2015
# Frame Rate: 120.000 fps
#------------------------------------------------------
:FULLY-SPECIFIED
:DEGREES
3284
root -3.218251 37.245056 2.873748 77.016133 56.783613 62.641436
Spine 5.635161 -0.571822 -10.070519
Head -9.769739 29.244972 -19.880631
LeftShoulder 7.377562 -20.296179 7.691645
LeftArm 27.709121 -17.902380 -63.474479
LeftForeArm 0.972892 0.000000 69.171935
LeftHand -11.007215 -0.000000 52.827174
LeftHandThumb1 -26.253704 0.000000 33.147579
RightShoulder -1.002396 -17.188428 -11.660516
RightArm 0.178466 -6.164147 46.815680
RightForeArm -162.020003 0.000000 26.726855
RightHand -0.128570 -0.000000 2.542860
RightHandThumb1 -24.326973 -0.000000 -32.862282
LeftUpLeg -34.592630 33.733374 8.057151
LeftLeg 102.592069 -0.000000 -0.000000
LeftFoot -4.183198 2.122666 -34.687714
LeftToeBase 15.927051 -0.000000 -0.000000
RightUpLeg -37.979233 -36.171467 -5.604107
RightLeg 31.461437 -0.000000 -0.000000
RightFoot -27.425308 -19.288087 7.634248
RightToeBase 1.799439 -0.000000 -0.000000
3285
root -3.220670 37.244238 2.876551 77.285299 56.828832 62.992285
Spine 5.635583 -0.681927 -10.077338
Head -9.690330 28.994818 -19.814330
LeftShoulder 7.387903 -20.246599 7.696387
LeftArm 27.758942 -17.736321 -63.581467
LeftForeArm 1.098882 0.000000 69.385648
LeftHand -10.987646 0.000000 52.713332
LeftHandThumb1 -26.253704 0.000000 33.147579
RightShoulder -1.024508 -17.258697 -11.628955
RightArm 0.071007 -6.153346 46.962482
RightForeArm -162.063773 0.000000 26.656049
RightHand -0.123945 0.000000 2.575019
RightHandThumb1 -24.326973 -0.000000 -32.862282
LeftUpLeg -34.847687 33.890304 7.906314
LeftLeg 103.124268 -0.000000 -0.000000
LeftFoot -3.545728 1.649540 -34.816957
LeftToeBase 16.100674 -0.000000 -0.000000
RightUpLeg -37.870360 -36.223540 -5.717613
RightLeg 31.493248 -0.000000 -0.000000
RightFoot -27.499916 -19.404382 7.734546
RightToeBase 1.842599 -0.000000 -0.000000
3286
root -3.222823 37.244816 2.879690 77.550326 56.866304 63.338160
Spine 5.627823 -0.790706 -10.089597
Head -9.591478 28.755429 -19.756934
LeftShoulder 7.359505 -20.140973 7.718577
LeftArm 27.869967 -17.567188 -63.719273
LeftForeArm 1.258092 -0.000000 69.563572
LeftHand -11.027761 -0.000000 52.698466
LeftHandThumb1 -26.253704 0.000000 33.147579
RightShoulder -1.047415 -17.328989 -11.598924
RightArm -0.000443 -6.218119 47.089358
RightForeArm -162.149119 -0.000000 26.572512
RightHand -0.074361 -0.000000 2.664628
RightHandThumb1 -24.326973 -0.000000 -32.862282
LeftUpLeg -35.078161 34.014959 7.765436
LeftLeg 103.626841 -0.000000 -0.000000
LeftFoot -2.831238 1.138961 -34.848193
LeftToeBase 16.192298 -0.000000 -0.000000
RightUpLeg -37.765572 -36.274499 -5.836522
RightLeg 31.531138 -0.000000 -0.000000
RightFoot -27.569935 -19.507395 7.849450
RightToeBase 1.877724 -0.000000 -0.000000
3287
root -3.224588 37.246775 2.884374 77.792263 56.889466 63.652023
Spine 5.603856 -0.859405 -10.118979
Head -9.467932 28.488930 -19.686368
LeftShoulder 7.355697 -20.055609 7.707111
LeftArm 27.951550 -17.369633 -63.782007
LeftForeArm 1.343725 -0.000000 69.742098
LeftHand -11.079507 0.000000 52.779167
LeftHandThumb1 -26.253704 0.000000 33.147579
RightShoulder -1.078880 -17.395619 -11.561632
RightArm -0.074620 -6.253886 47.214807
RightForeArm -162.011382 0.000000 26.503081
RightHand 0.061700 -0.000000 2.458236
RightHandThumb1 -24.326973 -0.000000 -32.862282
LeftUpLeg -35.294102 34.158584 7.630305
LeftLeg 104.089671 -0.000000 -0.000000
LeftFoot -2.155189 0.565369 -34.991602
LeftToeBase 15.947741 -0.000000 -0.000000
RightUpLeg -37.672239 -36.354778 -5.934942
RightLeg 31.543445 -0.000000 -0.000000
RightFoot -27.612831 -19.566640 7.916877
RightToeBase 1.900182 -0.000000 -0.000000
3288
root -3.224667 37.248936 2.888812 77.986377 56.905421 63.918603
Spine 5.571745 -0.902834 -10.138245
Head -9.320507 28.257700 -19.641615
LeftShoulder 7.321964 -19.981433 7.709658
LeftArm 28.029885 -17.171019 -63.892576
LeftForeArm 1.536233 -0.000000 69.850246
LeftHand -11.210241 -0.000000 52.956858
LeftHandThumb1 -26.253704 0.000000 33.147579
RightShoulder -1.106342 -17.468262 -11.546024
RightArm -0.123563 -6.334335 47.367090
RightForeArm -162.325098 -0.000000 26.409227
RightHand 0.007243 -0.000000 2.637549
RightHandThumb1 -24.326973 -0.000000 -32.862282
LeftUpLeg -35.466333 34.293928 7.536108
LeftLeg 104.540552 -0.000000 -0.000000
LeftFoot -1.587039 -0.082332 -35.726821
LeftToeBase 16.374213 -0.000000 -0.000000
RightUpLeg -37.578143 -36.428246 -6.028448
RightLeg 31.556900 -0.000000 -0.000000
RightFoot -27.670213 -19.595761 8.013770
RightToeBase 1.948419 -0.000000 -0.000000
